<svg width="408" height="431" viewBox="0 0 408 431" fill="none" xmlns="http://www.w3.org/2000/svg">
<path d="M248.081 182.161C248.081 182.161 326.409 191.259 368.791 142.665C411.394 93.4045 403.406 4.64759 403.406 4.64759C384.599 3.05564 365.659 4.40315 347.267 8.64165L336.838 49.026L294.457 33.2717C289.893 36.7208 285.726 40.665 282.031 45.032C239.428 93.4044 248.081 182.161 248.081 182.161ZM248.081 182.161L203.703 226.54" stroke="white" stroke-width="8" stroke-linecap="round" stroke-linejoin="round"/>
<path d="M203.703 26.835H26.1892C20.3043 26.835 14.6604 29.1727 10.4991 33.334C6.33778 37.4953 4 43.1392 4 49.0242V404.052C4 409.937 6.33778 415.58 10.4991 419.742C14.6604 423.903 20.3043 426.241 26.1892 426.241H381.217C387.102 426.241 392.745 423.903 396.907 419.742C401.068 415.58 403.406 409.937 403.406 404.052V226.538" stroke="white" stroke-width="8" stroke-linecap="round" stroke-linejoin="round"/>
</svg>
