<svg width="408" height="408" viewBox="0 0 408 408" fill="none" xmlns="http://www.w3.org/2000/svg">
<path d="M219.776 214.421L193.584 188.229L351.835 29.9779L378.027 56.1698L219.776 214.421Z" stroke="white" stroke-width="8"/>
<path d="M219.776 214.421L193.584 188.229L351.835 29.9779L378.027 56.1698L219.776 214.421Z" stroke="white" stroke-width="8"/>
<path d="M219.777 214.418L209.782 204.422L368.033 46.1709L378.029 56.1664L219.777 214.418Z" stroke="white" stroke-width="8"/>
<path d="M219.777 214.418L209.782 204.422L368.033 46.1709L378.029 56.1664L219.777 214.418Z" stroke="white" stroke-width="8"/>
<mask id="path-3-inside-1_59_312" fill="white">
<path d="M401.694 58.2388C405.479 55.0802 407.761 50.4763 407.982 45.5513C408.203 40.6263 406.345 35.8365 402.859 32.3506L375.649 5.14124C372.163 1.65531 367.373 -0.204065 362.449 0.0178095C357.524 0.239684 352.92 2.52093 349.761 6.30608L315.826 46.967C313.017 50.3326 313.239 55.2857 316.34 58.3849L349.614 91.6583C352.714 94.7583 357.666 94.9802 361.031 92.1724L401.694 58.2388Z"/>
</mask>
<path d="M401.694 58.2388L396.568 52.0965L396.568 52.0966L401.694 58.2388ZM402.859 32.3506L408.516 26.6937L402.859 32.3506ZM375.649 5.14124L369.993 10.7981L375.649 5.14124ZM362.449 0.0178095L362.809 8.0097L362.809 8.0097L362.449 0.0178095ZM349.761 6.30608L355.903 11.4321L355.903 11.4317L349.761 6.30608ZM315.826 46.967L321.968 52.0935L321.968 52.093L315.826 46.967ZM316.34 58.3849L321.997 52.7281L321.996 52.7266L316.34 58.3849ZM349.614 91.6583L355.27 86.0014L349.614 91.6583ZM361.031 92.1724L366.156 98.3153L366.157 98.3146L361.031 92.1724ZM406.819 64.3812C412.33 59.7831 415.652 53.0803 415.974 45.9101L399.99 45.1926C399.87 47.8724 398.628 50.3774 396.568 52.0965L406.819 64.3812ZM415.974 45.9101C416.296 38.7418 413.591 31.7687 408.516 26.6937L397.202 38.0074C399.099 39.9044 400.111 42.5109 399.99 45.1926L415.974 45.9101ZM408.516 26.6937L381.306 -0.515615L369.993 10.7981L397.202 38.0074L408.516 26.6937ZM381.306 -0.515615C376.232 -5.59 369.258 -8.29711 362.089 -7.97408L362.809 8.0097C365.488 7.88898 368.095 8.90061 369.993 10.7981L381.306 -0.515615ZM362.089 -7.97408C354.92 -7.65114 348.218 -4.33043 343.619 1.18049L355.903 11.4317C357.622 9.37229 360.127 8.13051 362.809 8.0097L362.089 -7.97408ZM343.619 1.18006L309.684 41.8409L321.968 52.093L355.903 11.4321L343.619 1.18006ZM309.685 41.8404C304.222 48.3842 304.654 58.0159 310.685 64.0432L321.996 52.7266C321.824 52.5555 321.811 52.281 321.968 52.0935L309.685 41.8404ZM310.683 64.0418L343.957 97.3152L355.27 86.0014L321.997 52.7281L310.683 64.0418ZM343.957 97.3152C349.985 103.343 359.614 103.774 366.156 98.3153L355.907 86.0294C355.718 86.1868 355.442 86.1732 355.27 86.0014L343.957 97.3152ZM366.157 98.3146L406.82 64.381L396.568 52.0966L355.906 86.0302L366.157 98.3146Z" fill="white" mask="url(#path-3-inside-1_59_312)"/>
<path d="M401.694 58.2388L396.568 52.0965L396.568 52.0966L401.694 58.2388ZM402.859 32.3506L408.516 26.6937L402.859 32.3506ZM375.649 5.14124L369.993 10.7981L375.649 5.14124ZM362.449 0.0178095L362.809 8.0097L362.809 8.0097L362.449 0.0178095ZM349.761 6.30608L355.903 11.4321L355.903 11.4317L349.761 6.30608ZM315.826 46.967L321.968 52.0935L321.968 52.093L315.826 46.967ZM316.34 58.3849L321.997 52.7281L321.996 52.7266L316.34 58.3849ZM349.614 91.6583L355.27 86.0014L349.614 91.6583ZM361.031 92.1724L366.156 98.3153L366.157 98.3146L361.031 92.1724ZM406.819 64.3812C412.33 59.7831 415.652 53.0803 415.974 45.9101L399.99 45.1926C399.87 47.8724 398.628 50.3774 396.568 52.0965L406.819 64.3812ZM415.974 45.9101C416.296 38.7418 413.591 31.7687 408.516 26.6937L397.202 38.0074C399.099 39.9044 400.111 42.5109 399.99 45.1926L415.974 45.9101ZM408.516 26.6937L381.306 -0.515615L369.993 10.7981L397.202 38.0074L408.516 26.6937ZM381.306 -0.515615C376.232 -5.59 369.258 -8.29711 362.089 -7.97408L362.809 8.0097C365.488 7.88898 368.095 8.90061 369.993 10.7981L381.306 -0.515615ZM362.089 -7.97408C354.92 -7.65114 348.218 -4.33043 343.619 1.18049L355.903 11.4317C357.622 9.37229 360.127 8.13051 362.809 8.0097L362.089 -7.97408ZM343.619 1.18006L309.684 41.8409L321.968 52.093L355.903 11.4321L343.619 1.18006ZM309.685 41.8404C304.222 48.3842 304.654 58.0159 310.685 64.0432L321.996 52.7266C321.824 52.5555 321.811 52.281 321.968 52.0935L309.685 41.8404ZM310.683 64.0418L343.957 97.3152L355.27 86.0014L321.997 52.7281L310.683 64.0418ZM343.957 97.3152C349.985 103.343 359.614 103.774 366.156 98.3153L355.907 86.0294C355.718 86.1868 355.442 86.1732 355.27 86.0014L343.957 97.3152ZM366.157 98.3146L406.82 64.381L396.568 52.0966L355.906 86.0302L366.157 98.3146Z" fill="white" mask="url(#path-3-inside-1_59_312)"/>
<path d="M335.635 98.5532L309.491 72.4087L317.095 64.8052L343.239 90.9496L335.635 98.5532Z" stroke="white" stroke-width="8"/>
<path d="M335.635 98.5532L309.491 72.4087L317.095 64.8052L343.239 90.9496L335.635 98.5532Z" stroke="white" stroke-width="8"/>
<path d="M403.986 45.3718L403.986 45.3724C403.816 49.1745 402.053 52.7289 399.131 55.167L399.13 55.1675L358.469 89.1018L358.469 89.1021C356.693 90.5844 354.079 90.4671 352.443 88.8304L352.443 88.8303L338.634 75.022L389.254 24.4024L400.03 35.1784C400.03 35.1785 400.03 35.1786 400.03 35.1787C402.722 37.8714 404.158 41.5696 403.986 45.3718Z" stroke="white" stroke-width="8"/>
<path d="M403.986 45.3718L403.986 45.3724C403.816 49.1745 402.053 52.7289 399.131 55.167L399.13 55.1675L358.469 89.1018L358.469 89.1021C356.693 90.5844 354.079 90.4671 352.443 88.8304L352.443 88.8303L338.634 75.022L389.254 24.4024L400.03 35.1784C400.03 35.1785 400.03 35.1786 400.03 35.1787C402.722 37.8714 404.158 41.5696 403.986 45.3718Z" stroke="white" stroke-width="8"/>
<path d="M191.799 329.071L191.799 329.071C192.467 317.29 200.225 307.08 211.396 303.28C218.571 300.84 225.112 296.914 230.59 291.436L230.591 291.436C242.977 279.049 247.332 261.392 244.804 243.235C242.277 225.081 232.869 206.173 217.348 190.652C201.828 175.132 182.92 165.724 164.766 163.196C146.609 160.669 128.952 165.024 116.565 177.41C111.087 182.888 107.161 189.429 104.721 196.604C100.921 207.777 90.712 215.533 78.9297 216.201L78.9294 216.201C58.1952 217.378 38.3931 225.403 23.2184 240.578C5.18769 258.608 0.807283 279.632 6.09504 301.014C11.3126 322.111 25.867 343.368 45.2496 362.75C64.6322 382.132 85.8885 396.686 106.986 401.904C128.367 407.192 149.392 402.812 167.423 384.781C182.597 369.607 190.623 349.805 191.799 329.071Z" stroke="white" stroke-width="8"/>
<path d="M191.799 329.071L191.799 329.071C192.467 317.29 200.225 307.08 211.396 303.28C218.571 300.84 225.112 296.914 230.59 291.436L230.591 291.436C242.977 279.049 247.332 261.392 244.804 243.235C242.277 225.081 232.869 206.173 217.348 190.652C201.828 175.132 182.92 165.724 164.766 163.196C146.609 160.669 128.952 165.024 116.565 177.41C111.087 182.888 107.161 189.429 104.721 196.604C100.921 207.777 90.712 215.533 78.9297 216.201L78.9294 216.201C58.1952 217.378 38.3931 225.403 23.2184 240.578C5.18769 258.608 0.807283 279.632 6.09504 301.014C11.3126 322.111 25.867 343.368 45.2496 362.75C64.6322 382.132 85.8885 396.686 106.986 401.904C128.367 407.192 149.392 402.812 167.423 384.781C182.597 369.607 190.623 349.805 191.799 329.071Z" stroke="white" stroke-width="8"/>
<path d="M209.786 298.547C196.686 303.003 187.591 314.974 186.808 328.788C185.694 348.409 178.116 367.017 163.887 381.246C147.166 397.967 127.967 401.943 108.186 397.051C88.5799 392.202 68.3581 378.623 49.4937 359.921L214.517 194.899C228.916 209.582 237.526 227.216 239.852 243.925C242.215 260.904 238.091 276.865 227.055 287.9C222.15 292.804 216.281 296.337 209.786 298.547Z" stroke="white" stroke-width="2"/>
<path d="M185.554 251.178C185.554 267.048 172.688 279.914 156.817 279.914C140.946 279.914 128.08 267.048 128.08 251.178C128.08 235.307 140.946 222.441 156.817 222.441C172.688 222.441 185.554 235.307 185.554 251.178Z" stroke="white" stroke-width="8"/>
<path d="M185.554 251.178C185.554 267.048 172.688 279.914 156.817 279.914C140.946 279.914 128.08 267.048 128.08 251.178C128.08 235.307 140.946 222.441 156.817 222.441C172.688 222.441 185.554 235.307 185.554 251.178Z" stroke="white" stroke-width="8"/>
<path d="M72.5111 299.21L108.791 335.49C112.402 339.101 118.259 339.101 121.872 335.49C121.872 335.489 121.872 335.489 121.873 335.489M72.5111 299.21L124.701 319.58C129.875 324.755 129.875 333.144 124.701 338.318L121.873 335.489M72.5111 299.21C68.899 295.598 68.899 289.741 72.5111 286.129C76.1232 282.516 81.9804 282.516 85.5925 286.129L121.872 322.408L72.5111 299.21ZM121.873 335.489C125.484 331.877 125.484 326.021 121.872 322.408L121.873 335.489Z" stroke="white" stroke-width="8"/>
<path d="M72.5111 299.21L108.791 335.49C112.402 339.101 118.259 339.101 121.872 335.49C121.872 335.489 121.872 335.489 121.873 335.489M72.5111 299.21L124.701 319.58C129.875 324.755 129.875 333.144 124.701 338.318L121.873 335.489M72.5111 299.21C68.899 295.598 68.899 289.741 72.5111 286.129C76.1232 282.516 81.9804 282.516 85.5925 286.129L121.872 322.408L72.5111 299.21ZM121.873 335.489C125.484 331.877 125.484 326.021 121.872 322.408L121.873 335.489Z" stroke="white" stroke-width="8"/>
</svg>
