<svg width="52" height="52" viewBox="0 0 52 52" fill="none" xmlns="http://www.w3.org/2000/svg">
<path d="M28.9021 48.5884C27.7001 49.4066 26.3762 50.0489 24.9999 50.4772C23.6237 50.0489 22.2999 49.4066 21.0979 48.5884C22.464 48.0949 23.7706 47.4478 24.9999 46.6535C26.2294 47.4478 27.5359 48.0949 28.9021 48.5884Z" fill="white" stroke="#C778DD"/>
<path d="M7.69203 43.3074C7.02119 42.0317 6.53917 40.6425 6.26799 39.2139C7.58428 39.8327 8.96465 40.2983 10.3942 40.6059C10.7019 42.0355 11.1674 43.4159 11.7863 44.7322C10.3576 44.461 8.96826 43.9789 7.69203 43.3074Z" fill="white" stroke="#C778DD"/>
<path d="M42.3078 43.3074C41.0316 43.9789 39.6423 44.461 38.2136 44.7322C38.8324 43.4159 39.298 42.0355 39.6057 40.6059C41.0351 40.2983 42.4156 39.8327 43.7319 39.2139C43.4607 40.6425 42.9787 42.0317 42.3078 43.3074Z" fill="white" stroke="#C778DD"/>
<path d="M21.1501 43.3922C19.921 44.0159 18.5934 44.47 17.2424 44.7277C16.4706 43.5893 15.8534 42.3301 15.4255 41.0217C16.6271 40.9643 17.8197 40.7965 18.9869 40.52C19.6173 41.5422 20.3419 42.5039 21.1501 43.3922Z" fill="white" stroke="#C778DD"/>
<path d="M34.5753 41.0217C34.1468 42.3302 33.5294 43.5893 32.7576 44.7277C31.4063 44.4701 30.0792 44.016 28.8501 43.3923C29.6587 42.5039 30.3829 41.5421 31.0133 40.52C32.1809 40.7965 33.3732 40.9643 34.5753 41.0217Z" fill="white" stroke="#C778DD"/>
<path d="M25 40.5543C24.4729 40.011 23.9866 39.4264 23.5481 38.8064C24.0431 38.5446 24.5286 38.261 25 37.9567C25.4714 38.261 25.957 38.5446 26.4524 38.8064C26.0134 39.4264 25.5271 40.011 25 40.5543Z" fill="white" stroke="#C778DD"/>
<path d="M16.9708 36.0825C16.2229 36.2104 15.4659 36.2805 14.7086 36.2913C14.7194 35.5341 14.7895 34.777 14.918 34.0292C15.453 34.1946 15.9964 34.3374 16.544 34.4559C16.6625 35.0036 16.8053 35.547 16.9708 36.0825Z" fill="white" stroke="#C778DD"/>
<path d="M35.082 34.0292C35.2105 34.777 35.2805 35.534 35.2913 36.2913C34.5341 36.2805 33.7771 36.2104 33.0293 36.0825C33.1946 35.5471 33.3374 35.0037 33.4559 34.456C34.0036 34.3375 34.5469 34.1947 35.082 34.0292Z" fill="white" stroke="#C778DD"/>
<path d="M39.5199 32.0133C40.542 31.3828 41.5037 30.6582 42.3919 29.8501C43.0153 31.0794 43.4698 32.407 43.7275 33.7577C42.5891 34.5296 41.3299 35.1467 40.0215 35.5741C39.9641 34.3729 39.7964 33.1804 39.5199 32.0133Z" fill="white" stroke="#C778DD"/>
<path d="M7.60806 29.8503C8.49619 30.6584 9.45784 31.383 10.4799 32.0134C10.2034 33.1804 10.0358 34.3729 9.97939 35.5742C8.66999 35.1468 7.41078 34.5297 6.27243 33.7579C6.53015 32.4072 6.98469 31.0797 7.60806 29.8503Z" fill="white" stroke="#C778DD"/>
<path d="M21.4238 34.4119C21.5211 34.5185 21.6189 34.6238 21.717 34.728C21.5378 34.8246 21.3577 34.9195 21.1765 35.0123C21.1146 34.8182 21.0545 34.6233 20.9965 34.4277C21.1385 34.4231 21.281 34.4178 21.4238 34.4119Z" fill="white" stroke="#C778DD"/>
<path d="M29.0036 34.4277C28.9456 34.6232 28.8855 34.8179 28.8237 35.0118C28.6427 34.9191 28.4625 34.8244 28.2834 34.728C28.3818 34.6238 28.4799 34.5184 28.5777 34.412C28.7199 34.4179 28.8619 34.4231 29.0036 34.4277Z" fill="white" stroke="#C778DD"/>
<path d="M2.41149 22.0977C2.90502 23.4643 3.55222 24.7702 4.34659 26.0001C3.55222 27.2299 2.90502 28.5358 2.41149 29.9025C1.59296 28.7005 0.95113 27.3765 0.522791 26.0001C0.951133 24.6237 1.59297 23.2997 2.41149 22.0977Z" fill="white" stroke="#C778DD"/>
<path d="M47.5886 29.9024C47.0949 28.5356 46.4472 27.2293 45.6534 26.0001C46.4472 24.7707 47.0948 23.4645 47.5885 22.0977C48.4071 23.2996 49.0489 24.6237 49.4773 26.0001C49.0489 27.3765 48.4071 28.7005 47.5886 29.9024Z" fill="white" stroke="#C778DD"/>
<path d="M16.5881 29.5751C16.5821 29.7184 16.5769 29.8614 16.5723 30.0038C16.3768 29.9458 16.182 29.8858 15.9881 29.824C16.0811 29.6425 16.176 29.4618 16.2727 29.2823C16.3774 29.3806 16.4825 29.4782 16.5881 29.5751Z" fill="white" stroke="#C778DD"/>
<path d="M34.0105 29.8237C33.8179 29.8851 33.6244 29.9447 33.4304 30.0024C33.4263 29.8598 33.4214 29.7165 33.4152 29.5727C33.519 29.4765 33.6225 29.3796 33.7256 29.2822C33.8224 29.4616 33.9175 29.6422 34.0105 29.8237Z" fill="white" stroke="#C778DD"/>
<path d="M25.0001 20.3409C26.3815 20.7655 27.7255 21.3221 29.0012 21.999C29.6781 23.2746 30.2348 24.6187 30.6594 26.0001C30.2348 27.3816 29.6781 28.7255 29.0012 30.0012C27.7255 30.6781 26.3815 31.2348 25.0001 31.6593C23.6187 31.2348 22.2748 30.6781 20.9991 30.0012C20.322 28.7253 19.7647 27.3813 19.3408 26.0001C19.7647 24.6189 20.322 23.2749 20.9991 21.999C22.2747 21.3221 23.6186 20.7655 25.0001 20.3409Z" fill="white" stroke="#C778DD"/>
<path d="M38.0366 27.9016C37.9619 27.7509 37.8852 27.6011 37.8065 27.4522C37.6696 27.549 37.531 27.6436 37.3908 27.7358C37.4687 27.8844 37.5447 28.0339 37.6186 28.1843C37.7595 28.0924 37.8989 27.9981 38.0366 27.9016ZM36.358 25.9999L36.7732 26.2786C36.8351 26.1863 36.8963 26.0934 36.9566 25.9999C36.8963 25.9065 36.8352 25.8136 36.7732 25.7213L36.358 25.9999ZM39.5544 25.9999C39.6036 26.0477 39.6524 26.0959 39.7009 26.1444L39.701 26.1444C39.7426 26.186 39.781 26.2257 39.8229 26.269C39.8472 26.2942 39.8728 26.3205 39.9008 26.3493L40.0496 26.204L40.2585 25.9999L40.0497 25.7957L39.9011 25.6503C39.8719 25.6801 39.8456 25.7073 39.8205 25.7332C39.7795 25.7755 39.742 25.8143 39.701 25.8553L39.7009 25.8554C39.6524 25.9039 39.6036 25.952 39.5544 25.9999ZM37.3908 24.2639C37.531 24.3561 37.6696 24.4507 37.8065 24.5476C37.8852 24.3986 37.9619 24.2488 38.0366 24.0981C37.8989 24.0016 37.7595 23.9074 37.6186 23.8154C37.5447 23.9658 37.4687 24.1153 37.3908 24.2639Z" fill="white" stroke="#C778DD"/>
<path d="M10.4456 25.9999C10.9876 25.473 11.5729 24.9867 12.1935 24.5476C12.4553 25.0433 12.7389 25.5287 13.0432 25.9999C12.7389 26.4712 12.4553 26.9565 12.1935 27.4522C11.5729 27.0131 10.9876 26.5267 10.4456 25.9999Z" fill="white" stroke="#C778DD"/>
<path d="M34.0105 22.1763C33.9175 22.3579 33.8225 22.5385 33.7256 22.7179C33.6225 22.6205 33.519 22.5236 33.4152 22.4274C33.4214 22.2836 33.4263 22.1402 33.4304 21.9977C33.6244 22.0553 33.8179 22.1149 34.0105 22.1763Z" fill="white" stroke="#C778DD"/>
<path d="M16.2727 22.718C16.176 22.5384 16.0811 22.3577 15.9881 22.1763C16.182 22.1144 16.3768 22.0544 16.5723 21.9963C16.5769 22.1388 16.5822 22.2818 16.5881 22.4251C16.4826 22.522 16.3774 22.6197 16.2727 22.718Z" fill="white" stroke="#C778DD"/>
<path d="M42.3918 22.1499C41.5037 21.3419 40.542 20.6173 39.5199 19.9869C39.7964 18.8197 39.9641 17.6272 40.0215 16.4259C41.3299 16.8533 42.5891 17.4705 43.7275 18.2423C43.4697 19.593 43.0152 20.9206 42.3918 22.1499Z" fill="white" stroke="#C778DD"/>
<path d="M7.60797 22.1497C6.98464 20.9205 6.53013 19.593 6.27243 18.2423C7.41085 17.4705 8.67007 16.8533 9.97949 16.426C10.0359 17.6273 10.2035 18.8198 10.48 19.9869C9.45794 20.6172 8.49624 21.3412 7.60797 22.1497Z" fill="white" stroke="#C778DD"/>
<path d="M33.4559 17.5438C33.3374 16.9962 33.1946 16.4527 33.0293 15.9174C33.7771 15.7894 34.5341 15.7193 35.2912 15.7085C35.2804 16.4657 35.2104 17.2228 35.0819 17.9705C34.5469 17.8051 34.0035 17.6623 33.4559 17.5438Z" fill="white" stroke="#C778DD"/>
<path d="M14.9179 17.9708C14.7895 17.2231 14.7194 16.466 14.7086 15.7087C15.4658 15.7195 16.2229 15.7896 16.9708 15.9176C16.8054 16.453 16.6626 16.9964 16.5441 17.5441C15.9964 17.6626 15.453 17.8054 14.9179 17.9708Z" fill="white" stroke="#C778DD"/>
<path d="M28.5777 17.5882C28.4799 17.4817 28.3818 17.3764 28.2834 17.2721C28.4625 17.1757 28.6427 17.081 28.8237 16.9883C28.8856 17.1823 28.9456 17.377 29.0037 17.5725C28.862 17.577 28.7199 17.5823 28.5777 17.5882Z" fill="white" stroke="#C778DD"/>
<path d="M20.9965 17.5724C21.0546 17.3768 21.1146 17.182 21.1765 16.9879C21.3576 17.0807 21.5377 17.1755 21.717 17.2721C21.6189 17.3763 21.521 17.4816 21.4238 17.5881C21.281 17.5822 21.1385 17.577 20.9965 17.5724Z" fill="white" stroke="#C778DD"/>
<path d="M23.5481 13.1936C23.9866 12.5736 24.4729 11.989 25 11.4457C25.5271 11.989 26.0134 12.5736 26.4524 13.1936C25.9571 13.4555 25.4715 13.7391 25 14.0433C24.5287 13.7391 24.0431 13.4554 23.5481 13.1936Z" fill="white" stroke="#C778DD"/>
<path d="M6.26799 12.7864C6.53917 11.3578 7.02118 9.96853 7.69203 8.69286C8.96829 8.02135 10.3576 7.53921 11.7863 7.26806C11.1675 8.5847 10.7019 9.96594 10.3943 11.3943C8.96468 11.702 7.58428 12.1676 6.26799 12.7864Z" fill="white" stroke="#C778DD"/>
<path d="M39.6057 11.3943C39.298 9.9648 38.8324 8.58438 38.2136 7.26812C39.6423 7.5393 41.0316 8.02137 42.3078 8.69286C42.9787 9.96853 43.4607 11.3578 43.7319 12.7864C42.4156 12.1676 41.0352 11.702 39.6057 11.3943Z" fill="white" stroke="#C778DD"/>
<path d="M31.0133 11.4801C30.3828 10.4579 29.6582 9.49619 28.8499 8.6079C30.0791 7.9842 31.4062 7.53014 32.7577 7.27241C33.5295 8.41077 34.1468 9.66998 34.5752 10.9795C33.373 11.0359 32.1803 11.2036 31.0133 11.4801Z" fill="white" stroke="#C778DD"/>
<path d="M17.2423 7.27244C18.5933 7.53019 19.9209 7.98425 21.15 8.60792C20.3419 9.49621 19.6173 10.4579 18.9868 11.4801C17.8196 11.2036 16.627 11.0358 15.4254 10.9784C15.8533 9.67002 16.4705 8.41085 17.2423 7.27244Z" fill="white" stroke="#C778DD"/>
<path d="M21.098 3.41159C22.3 2.59339 23.6238 1.9511 25.0001 1.52279C26.3762 1.95102 27.7001 2.59334 28.9021 3.4115C27.5359 3.90498 26.2294 4.55214 25 5.34643C23.7707 4.55221 22.4641 3.90507 21.098 3.41159Z" fill="white" stroke="#C778DD"/>
</svg>
