<svg width="121" height="121" viewBox="0 0 121 121" fill="none" xmlns="http://www.w3.org/2000/svg">
<path d="M62.7399 1.02178L62.6949 0.0227961L62.7399 1.02178C68.7623 0.750427 74.6214 3.02446 78.8848 7.2879L113.713 42.1159C117.976 46.3793 120.249 52.2374 119.979 58.261C119.709 64.2843 116.918 69.9149 112.288 73.778L112.929 74.5458L112.288 73.778L60.2403 117.213C60.2403 117.213 60.2402 117.213 60.2402 117.213C56.3293 120.476 50.5749 120.218 46.973 116.616L4.38301 74.0257L4.38284 74.0255C0.780033 70.4245 0.521221 64.6693 3.78561 60.7586L3.78566 60.7586L47.2226 8.71255L47.2227 8.71249C51.0857 4.08322 56.7163 1.29315 62.7399 1.02178Z" stroke="black" stroke-width="2"/>
<path d="M62.7399 1.02178L62.6949 0.0227961L62.7399 1.02178C68.7623 0.750427 74.6214 3.02446 78.8848 7.2879L113.713 42.1159C117.976 46.3793 120.249 52.2374 119.979 58.261C119.709 64.2843 116.918 69.9149 112.288 73.778L112.929 74.5458L112.288 73.778L60.2403 117.213C60.2403 117.213 60.2402 117.213 60.2402 117.213C56.3293 120.476 50.5749 120.218 46.973 116.616L4.38301 74.0257L4.38284 74.0255C0.780033 70.4245 0.521221 64.6693 3.78561 60.7586L3.78566 60.7586L47.2226 8.71255L47.2227 8.71249C51.0857 4.08322 56.7163 1.29315 62.7399 1.02178Z" stroke="black" stroke-opacity="0.2" stroke-width="2"/>
</svg>
