<svg width="303" height="303" viewBox="0 0 303 303" fill="none" xmlns="http://www.w3.org/2000/svg">
<path d="M93.0233 69.8516L93.0232 69.8516C67.3998 71.3062 43.037 81.2097 24.3928 99.8539C2.39284 121.853 -2.88101 147.26 3.56116 173.309C9.98577 199.287 28.0436 225.858 52.5928 250.407C77.142 274.956 103.713 293.014 129.691 299.438C155.741 305.881 181.148 300.607 203.148 278.607C221.792 259.964 231.697 235.601 233.15 209.979C234.1 193.223 245.133 178.703 261.021 173.299C269.644 170.365 277.463 165.664 284.003 159.125C298.745 144.383 304.129 123.18 301.029 100.91C297.929 78.6405 286.344 55.2408 267.053 35.9489C247.762 16.6569 224.362 5.07247 202.092 1.97252C179.822 -1.12752 158.618 4.25716 143.877 18.9989C137.338 25.5377 132.635 33.3569 129.703 41.9811C124.298 57.8712 109.781 68.9016 93.0233 69.8516Z" stroke="black" stroke-width="2"/>
<path d="M93.0233 69.8516L93.0232 69.8516C67.3998 71.3062 43.037 81.2097 24.3928 99.8539C2.39284 121.853 -2.88101 147.26 3.56116 173.309C9.98577 199.287 28.0436 225.858 52.5928 250.407C77.142 274.956 103.713 293.014 129.691 299.438C155.741 305.881 181.148 300.607 203.148 278.607C221.792 259.964 231.697 235.601 233.15 209.979C234.1 193.223 245.133 178.703 261.021 173.299C269.644 170.365 277.463 165.664 284.003 159.125C298.745 144.383 304.129 123.18 301.029 100.91C297.929 78.6405 286.344 55.2408 267.053 35.9489C247.762 16.6569 224.362 5.07247 202.092 1.97252C179.822 -1.12752 158.618 4.25716 143.877 18.9989C137.338 25.5377 132.635 33.3569 129.703 41.9811C124.298 57.8712 109.781 68.9016 93.0233 69.8516Z" stroke="black" stroke-opacity="0.2" stroke-width="2"/>
</svg>
