<svg width="97" height="97" viewBox="0 0 97 97" fill="none" xmlns="http://www.w3.org/2000/svg">
<path d="M95.979 34.2611L95.9789 34.2613C95.7085 40.2846 92.9167 45.9152 88.2873 49.7773L88.2872 49.7774L36.2412 93.2134L36.2411 93.2134C32.3305 96.4777 26.5762 96.2182 22.974 92.616L22.2669 93.3231L22.974 92.616L2.38518 72.0281L73.0059 1.40835L89.7128 18.1152C89.7128 18.1152 89.7128 18.1152 89.7128 18.1152C93.9763 22.3797 96.2503 28.2378 95.979 34.2611Z" stroke="black" stroke-width="2"/>
<path d="M95.979 34.2611L95.9789 34.2613C95.7085 40.2846 92.9167 45.9152 88.2873 49.7773L88.2872 49.7774L36.2412 93.2134L36.2411 93.2134C32.3305 96.4777 26.5762 96.2182 22.974 92.616L22.2669 93.3231L22.974 92.616L2.38518 72.0281L73.0059 1.40835L89.7128 18.1152C89.7128 18.1152 89.7128 18.1152 89.7128 18.1152C93.9763 22.3797 96.2503 28.2378 95.979 34.2611Z" stroke="black" stroke-opacity="0.2" stroke-width="2"/>
</svg>
